<svg id="Group_6547" data-name="Group 6547" xmlns="http://www.w3.org/2000/svg" width="17.98" height="20.922" viewBox="0 0 17.98 20.922">
  <g id="svgexport-6_10_" data-name="svgexport-6 (10)">
    <path id="Path_1618" data-name="Path 1618" d="M.683,4.374,4.957.176A.613.613,0,0,1,5.387,0H16.193A2.29,2.29,0,0,1,18.48,2.287V18.635a2.29,2.29,0,0,1-2.287,2.287H2.787A2.29,2.29,0,0,1,.5,18.635V4.811a.613.613,0,0,1,.183-.437Zm4.091-2.3L2.611,4.2H4.579A.2.2,0,0,0,4.774,4ZM2.787,19.7H16.193a1.062,1.062,0,0,0,1.061-1.061V2.287a1.062,1.062,0,0,0-1.061-1.061H6V4A1.422,1.422,0,0,1,4.579,5.424H1.725V18.635A1.062,1.062,0,0,0,2.787,19.7Zm0,0" transform="translate(-0.5 0)" fill="#b0b0b0"/>
    <path id="Path_1619" data-name="Path 1619" d="M98.8,238h8.641a.613.613,0,1,1,0,1.226H98.8a.613.613,0,1,1,0-1.226Zm0,0" transform="translate(-94.07 -228.275)" fill="#b0b0b0"/>
    <path id="Path_1620" data-name="Path 1620" d="M105.849,299.226H98.8a.613.613,0,0,1,0-1.226h7.045a.613.613,0,0,1,0,1.226Zm0,0" transform="translate(-92.474 -285.823)" fill="#b0b0b0"/>
    <path id="Path_1621" data-name="Path 1621" d="M98.8,358h7.9a.613.613,0,0,1,0,1.226H98.8a.613.613,0,0,1,0-1.226Zm0,0" transform="translate(-93.324 -343.371)" fill="#b0b0b0"/>
  </g>
</svg>
