<svg id="Iconly_Bulk_Location" data-name="Iconly/Bulk/Location" xmlns="http://www.w3.org/2000/svg" width="11.666" height="16.667" viewBox="0 0 11.666 16.667">
  <g id="Location">
    <path id="Path_34175" d="M5.868,14.167h0a.686.686,0,0,1-.325-.1,15.379,15.379,0,0,1-4.032-3.79A7.689,7.689,0,0,1,0,5.945,5.972,5.972,0,0,1,2.943.781,5.741,5.741,0,0,1,8.805.829a6.045,6.045,0,0,1,2.1,2.228,6.183,6.183,0,0,1,.757,2.994A8.762,8.762,0,0,1,9.006,11.7a15.626,15.626,0,0,1-2.8,2.35.977.977,0,0,1-.339.12ZM5.827,4.04a1.952,1.952,0,0,0-1.4.588A2.038,2.038,0,0,0,4,6.829,1.975,1.975,0,0,0,5.826,8.077H5.84a1.939,1.939,0,0,0,1.389-.585,2.046,2.046,0,0,0-.64-3.3A1.94,1.94,0,0,0,5.827,4.04Z" transform="translate(0 0)" fill="#828282"/>
    <ellipse id="Ellipse_743" cx="4.167" cy="0.833" rx="4.167" ry="0.833" transform="translate(1.667 15)" fill="#828282" opacity="0.4"/>
  </g>
</svg>
