<svg xmlns="http://www.w3.org/2000/svg" width="20.991" height="20.989" viewBox="0 0 20.991 20.989">
  <path id="Icon_ionic-ios-call" data-name="Icon ionic-ios-call" d="M5.1,20.937a17.631,17.631,0,0,1,3.683-2.464c1.1-.53,1.508-.519,2.29.044.65.47,1.071.907,1.82.743a10.855,10.855,0,0,0,3.656-2.7,10.777,10.777,0,0,0,2.7-3.656c.158-.754-.279-1.169-.743-1.82-.563-.781-.579-1.186-.044-2.29a17.282,17.282,0,0,1,2.464-3.683c.8-.8.984-.628,1.426-.47a8.116,8.116,0,0,1,1.306.694,3.94,3.94,0,0,1,1.568,1.656c.311.672.672,1.923-1.164,5.191A28.966,28.966,0,0,1,18.97,18.97h0l-.005.005-.005.005h0a29.079,29.079,0,0,1-6.792,5.093C8.9,25.91,7.648,25.549,6.976,25.238A3.873,3.873,0,0,1,5.32,23.669a8.116,8.116,0,0,1-.694-1.306C4.468,21.921,4.288,21.741,5.1,20.937Z" transform="translate(-4.49 -4.502)" fill="#b0b0b0"/>
</svg>
