<svg id="fingerprint" xmlns="http://www.w3.org/2000/svg" width="20" height="20" viewBox="0 0 20 20">
  <rect id="Bounding_box" data-name="Bounding box" width="20" height="20" fill="rgba(255,255,255,0)"/>
  <path id="Icon_color" data-name="Icon color" d="M6.693,15.85h0c-.274,0-1.253-.719-2.231-2.152A10.583,10.583,0,0,1,2.594,7.953a.38.38,0,0,1,.369-.367h.4a.362.362,0,0,1,.346.344,8.623,8.623,0,0,0,3.067,6.619c.294.276.489.459.489.567a.407.407,0,0,1-.052.208l-.2.336A.367.367,0,0,1,6.693,15.85ZM2.116,14.668h0c-.289,0-.807-.88-1.259-2.14A14.748,14.748,0,0,1,0,7.865V6.388A6.6,6.6,0,0,1,1.643,1.911,5.6,5.6,0,0,1,5.742,0a5.725,5.725,0,0,1,.9.072A.361.361,0,0,1,6.9.264a.427.427,0,0,1,0,.343L6.765.99a.366.366,0,0,1-.344.268.326.326,0,0,1-.056-.005A3.611,3.611,0,0,0,5.742,1.2,4.159,4.159,0,0,0,2.078,3.247a6.364,6.364,0,0,0-.936,3.085L1.112,7.785a11.776,11.776,0,0,0,1.435,5.737,1.915,1.915,0,0,1,.231.532.4.4,0,0,1-.148.319L2.32,14.6A.336.336,0,0,1,2.116,14.668Zm7.116-.441a.351.351,0,0,1-.141-.029,6.568,6.568,0,0,1-2.534-2.124.421.421,0,0,1-.067-.325.4.4,0,0,1,.185-.266l.333-.2a.349.349,0,0,1,.176-.048.359.359,0,0,1,.291.152,5.346,5.346,0,0,0,2.023,1.7.4.4,0,0,1,.215.5l-.133.383a.394.394,0,0,1-.2.229A.344.344,0,0,1,9.231,14.227ZM10.38,11.7h0a4.074,4.074,0,0,1-2.6-3.929v-1.6A2.279,2.279,0,0,0,7.245,4.6a1.96,1.96,0,0,0-1.41-.705l-.087,0a2.1,2.1,0,0,0-2.028,2.1.384.384,0,0,1-.371.384H2.964a.351.351,0,0,1-.252-.109A.4.4,0,0,1,2.6,5.988,3.275,3.275,0,0,1,5.742,2.795,3.118,3.118,0,0,1,7.992,3.87a3.62,3.62,0,0,1,.9,2.47V7.785A3.008,3.008,0,0,0,10.6,10.548a.424.424,0,0,1,.23.367.269.269,0,0,1,0,.1l-.1.384A.378.378,0,0,1,10.38,11.7Zm-4.4-1.2a.356.356,0,0,1-.155-.036.379.379,0,0,1-.215-.232,7.22,7.22,0,0,1-.422-2.443v-1.2a.386.386,0,0,1,.371-.4h.37a.361.361,0,0,1,.27.125.422.422,0,0,1,.1.3v1.2a6.006,6.006,0,0,0,.326,1.972.405.405,0,0,1-.171.487l-.319.192A.356.356,0,0,1,5.979,10.5Zm5.082-2.568h-.37a.386.386,0,0,1-.371-.4V6.212a5.026,5.026,0,0,0-2.333-4.3.415.415,0,0,1-.163-.479l.133-.392A.4.4,0,0,1,8.172.8a.354.354,0,0,1,.311,0,6.281,6.281,0,0,1,2.949,5.358V7.53A.392.392,0,0,1,11.061,7.929Z" transform="translate(4.249 2)" fill="#333"/>
</svg>
