<svg xmlns="http://www.w3.org/2000/svg" width="18.158" height="21.185" viewBox="0 0 18.158 21.185">
  <path id="Icon_metro-language" data-name="Icon metro-language" d="M12.5,14.947q-.012.035-.148-.006t-.372-.136l-.236-.106a7.083,7.083,0,0,1-1.028-.579q-.083-.059-.485-.372t-.449-.337A20.14,20.14,0,0,1,8.2,15.55a8.788,8.788,0,0,1-1.241,1.3.937.937,0,0,1-.231.047.455.455,0,0,1-.219,0q.071-.047.969-1.088.248-.284,1.011-1.36a16.528,16.528,0,0,0,.928-1.395q.2-.355.6-1.164a9.215,9.215,0,0,0,.426-.916,9.715,9.715,0,0,0-1.3.39q-.095.024-.325.089t-.408.112a2.025,2.025,0,0,0-.2.059.2.2,0,0,0-.024.124.262.262,0,0,1-.012.112q-.059.118-.366.177a.953.953,0,0,1-.556,0,.5.5,0,0,1-.331-.248.6.6,0,0,1-.059-.272,2.285,2.285,0,0,1,.29-.059,3.53,3.53,0,0,0,.349-.071q.686-.189,1.241-.378Q9.924,10.6,9.948,10.6a2.623,2.623,0,0,0,.508-.231,5.347,5.347,0,0,1,.52-.254q.106-.035.254-.095t.171-.065a.158.158,0,0,1,.071.006,1.345,1.345,0,0,1-.012.39,2.517,2.517,0,0,1-.148.319q-.148.3-.313.632t-.2.4a17.73,17.73,0,0,1-.91,1.549l.757.331q.142.071.881.378l.8.331q.047.012.124.3a.9.9,0,0,1,.053.361ZM10.078,9.2a.479.479,0,0,1-.047.331,1.072,1.072,0,0,1-.591.449,1.9,1.9,0,0,1-.709.142.978.978,0,0,1-.579-.307.889.889,0,0,1-.213-.485L7.95,9.3a.506.506,0,0,0,.231.059,1.028,1.028,0,0,0,.313,0q.118-.024.686-.189A3.375,3.375,0,0,1,9.83,9a.233.233,0,0,1,.248.2Zm8.252,1.525.745,2.684-1.643-.5Zm-13.1,9.457,8.2-2.743V5.242L5.231,8V20.184ZM19.9,16.437l1.206.366-2.14-7.767L17.786,8.67l-2.554,6.337,1.206.366.532-1.3,2.494.768ZM13.955,5.064,20.729,7.24V2.747ZM17.632,20.7l1.868.154-.638,1.891-.473-.78a8.764,8.764,0,0,1-3.263,1.277,5.666,5.666,0,0,1-1.076.142h-.993a7.99,7.99,0,0,1-2.358-.461,7.85,7.85,0,0,1-2.169-1,.246.246,0,0,1-.095-.189.229.229,0,0,1,.059-.16.2.2,0,0,1,.154-.065.666.666,0,0,1,.213.089l.361.2q.2.106.242.13a10.474,10.474,0,0,0,1.886.727,6.888,6.888,0,0,0,1.862.29,10.088,10.088,0,0,0,1.974-.171,9.744,9.744,0,0,0,1.856-.6q.177-.083.361-.183t.4-.225q.219-.124.337-.2Zm5.3-12.756V20.7L13.778,17.8q-.166.071-4.433,1.507T4.994,20.74a.214.214,0,0,1-.213-.154.091.091,0,0,0-.012-.035V7.807a.528.528,0,0,1,.047-.118.532.532,0,0,1,.236-.13q1.253-.414,1.761-.591V2.428l6.6,2.341q.024,0,1.9-.65t3.736-1.283Q20.907,2.2,20.954,2.2q.236,0,.236.248V7.393Z" transform="translate(-4.77 -2.203)" fill="#333"/>
</svg>
