<svg id="Lock" xmlns="http://www.w3.org/2000/svg" width="14.167" height="16.667" viewBox="0 0 14.167 16.667">
  <path id="Lock-2" data-name="Lock" d="M10.61,16.667H3.557A3.523,3.523,0,0,1,0,13.188V9.073a3.47,3.47,0,0,1,2.481-3.3V4.5A4.56,4.56,0,0,1,7.071,0a4.646,4.646,0,0,1,3.266,1.317A4.412,4.412,0,0,1,11.686,4.5V5.774a3.47,3.47,0,0,1,2.481,3.3v4.115A3.522,3.522,0,0,1,10.61,16.667ZM7.079,9.487a.73.73,0,0,0-.737.721v1.838a.741.741,0,0,0,1.481,0V10.207A.734.734,0,0,0,7.079,9.487Zm.008-8.038A3.093,3.093,0,0,0,3.963,4.48V5.595H10.2V4.5A3.086,3.086,0,0,0,7.087,1.449Z" fill="#333"/>
</svg>
