<svg id="Iconly_Bulk_Message" data-name="Iconly/Bulk/Message" xmlns="http://www.w3.org/2000/svg" width="16.667" height="15.001" viewBox="0 0 16.667 15.001">
  <path id="Fill_1" data-name="Fill 1" d="M16.667,5.953a4.206,4.206,0,0,1-4.192,4.217H4.208A4.206,4.206,0,0,1,0,5.969V5.961S0,2.273.012.418A.415.415,0,0,1,.685.091C2.665,1.662,6.206,4.526,6.25,4.563a3.389,3.389,0,0,0,2.108.742,3.344,3.344,0,0,0,2.108-.751c.044-.029,3.506-2.807,5.516-4.4a.416.416,0,0,1,.676.325c.008,1.841.008,5.477.008,5.477" transform="translate(0 4.831)" fill="#828282" opacity="0.4"/>
  <path id="Fill_4" data-name="Fill 4" d="M15.811,2.228A4.2,4.2,0,0,0,12.106,0H3.789A4.2,4.2,0,0,0,.084,2.228a.72.72,0,0,0,.184.9L6.456,8.076A2.355,2.355,0,0,0,7.939,8.6h.017a2.355,2.355,0,0,0,1.483-.524l6.187-4.949a.72.72,0,0,0,.184-.9" transform="translate(0.419)" fill="#828282"/>
</svg>
