<svg id="ico_24_map_places_globe" data-name="ico / 24 / map &amp; places / globe" xmlns="http://www.w3.org/2000/svg" width="27" height="28" viewBox="0 0 27 28">
  <rect id="Bounding_box" data-name="Bounding box" width="28" height="28" />
  <path id="Icon_color" data-name="Icon color" d="M10.5,22A10.771,10.771,0,0,1,0,11,10.771,10.771,0,0,1,10.5,0,10.771,10.771,0,0,1,21,11,10.771,10.771,0,0,1,10.5,22ZM7.478,12.222c.159,3.842,1.376,6.6,2.5,7.334h1.05c1.085-.738,2.292-3.494,2.5-7.334Zm8.1,0A17.87,17.87,0,0,1,14.2,18.614a8.555,8.555,0,0,0,4.375-6.392Zm-13.148,0A8.552,8.552,0,0,0,6.8,18.614a17.874,17.874,0,0,1-1.377-6.392h-3ZM14.2,3.386a17.852,17.852,0,0,1,1.377,6.392h3A8.555,8.555,0,0,0,14.2,3.386Zm-4.177-.942c-1.085.738-2.291,3.494-2.5,7.334h6c-.159-3.842-1.376-6.6-2.5-7.334h-1ZM6.8,3.386A8.552,8.552,0,0,0,2.427,9.778h3A17.855,17.855,0,0,1,6.8,3.386Z" transform="translate(3 3)" fill="#b0b0b0"/>
</svg>
