<svg id="svgexport-6_9_" data-name="svgexport-6 (9)" xmlns="http://www.w3.org/2000/svg" width="23" height="21.242" viewBox="0 0 23 21.242">
  <g id="Group_6537" data-name="Group 6537" transform="translate(8.743 5.372)">
    <g id="Group_6536" data-name="Group 6536">
      <path id="Path_1613" data-name="Path 1613" d="M199.333,139.967a2.757,2.757,0,1,0-2.653,4.614v9.746a.7.7,0,0,0,1.408,0V144.58a2.756,2.756,0,0,0,1.246-4.614Zm-1,2.9a1.349,1.349,0,1,1,.4-.954A1.351,1.351,0,0,1,198.338,142.87Z" transform="translate(-194.627 -139.16)" fill="#b0b0b0"/>
    </g>
  </g>
  <g id="Group_6539" data-name="Group 6539" transform="translate(15.485 3.032)">
    <g id="Group_6538" data-name="Group 6538">
      <path id="Path_1614" data-name="Path 1614" d="M345.921,87.262a.7.7,0,0,0-1,1,5.514,5.514,0,0,1,0,7.789.7.7,0,1,0,1,1A6.923,6.923,0,0,0,345.921,87.262Z" transform="translate(-344.719 -87.056)" fill="#b0b0b0"/>
    </g>
  </g>
  <g id="Group_6541" data-name="Group 6541" transform="translate(18.517)">
    <g id="Group_6540" data-name="Group 6540">
      <path id="Path_1615" data-name="Path 1615" d="M413.407,19.778a.7.7,0,0,0-1,1,9.806,9.806,0,0,1,0,13.852.7.7,0,1,0,1,1,11.2,11.2,0,0,0,0-15.843Z" transform="translate(-412.205 -19.572)" fill="#b0b0b0"/>
    </g>
  </g>
  <g id="Group_6543" data-name="Group 6543" transform="translate(4.291 3.032)">
    <g id="Group_6542" data-name="Group 6542">
      <path id="Path_1616" data-name="Path 1616" d="M98.528,88.258a.7.7,0,1,0-1-1,6.923,6.923,0,0,0,0,9.78.7.7,0,1,0,1-1A5.514,5.514,0,0,1,98.528,88.258Z" transform="translate(-95.511 -87.057)" fill="#b0b0b0"/>
    </g>
  </g>
  <g id="Group_6545" data-name="Group 6545">
    <g id="Group_6544" data-name="Group 6544">
      <path id="Path_1617" data-name="Path 1617" d="M4.277,20.773a.7.7,0,0,0-1-1,11.2,11.2,0,0,0,0,15.843.7.7,0,0,0,1-1A9.806,9.806,0,0,1,4.277,20.773Z" transform="translate(0 -19.572)" fill="#b0b0b0"/>
    </g>
  </g>
</svg>
