<svg id="Notification2" xmlns="http://www.w3.org/2000/svg" width="14.167" height="16.667" viewBox="0 0 14.167 16.667">
  <path id="Notification" d="M6.653,16.639a3.016,3.016,0,0,1-1.428-.611,1.293,1.293,0,0,1-.58-.977c0-.42.385-.612.741-.695a21.629,21.629,0,0,1,3.372,0c.356.083.741.274.741.695a1.294,1.294,0,0,1-.579.978,3.029,3.029,0,0,1-1.427.61,3.329,3.329,0,0,1-.426.028A3.056,3.056,0,0,1,6.653,16.639ZM3.137,13.123A3.779,3.779,0,0,1,.72,11.945,3.012,3.012,0,0,1,0,9.963,2.807,2.807,0,0,1,.609,8.038a3.164,3.164,0,0,0,.886-2.374V5.308A4.687,4.687,0,0,1,2.564,2.093,5.894,5.894,0,0,1,7.046,0h.075a5.868,5.868,0,0,1,4.556,2.187,4.621,4.621,0,0,1,1,3.121v.355a3.241,3.241,0,0,0,.885,2.374,2.8,2.8,0,0,1,.609,1.925,3.012,3.012,0,0,1-.719,1.982,3.783,3.783,0,0,1-2.417,1.178c-1.31.111-2.62.205-3.947.205A34.74,34.74,0,0,1,3.137,13.123Z" fill="#333"/>
</svg>
