<svg id="Iconly_Bold_Wallet" data-name="Iconly/Bold/Wallet" xmlns="http://www.w3.org/2000/svg" width="20" height="18" viewBox="0 0 20 18">
  <g id="Wallet" transform="translate(0)">
    <path id="Wallet-2" data-name="Wallet" d="M14.515,18H5.485a5.64,5.64,0,0,1-4.036-1.411A5.323,5.323,0,0,1,0,12.661V5.339A5.323,5.323,0,0,1,1.449,1.411,5.64,5.64,0,0,1,5.485,0h9.031a5.618,5.618,0,0,1,4.036,1.417A5.392,5.392,0,0,1,20,5.382H15.769v.034a3.583,3.583,0,0,0-2.513,1.017,3.4,3.4,0,0,0-1.043,2.449,3.516,3.516,0,0,0,3.556,3.467H20v.311a5.323,5.323,0,0,1-1.449,3.928A5.64,5.64,0,0,1,14.515,18ZM4.738,3.892a.757.757,0,0,0-.764.736.766.766,0,0,0,.764.754h5.645a.745.745,0,1,0,0-1.49Zm14.515,6.967H15.819A2.1,2.1,0,0,1,13.76,9.265a1.977,1.977,0,0,1,.433-1.652,2.089,2.089,0,0,1,1.576-.74h3.484A.739.739,0,0,1,20,7.6v2.531A.75.75,0,0,1,19.253,10.858ZM15.91,8.042a.757.757,0,0,0-.53.212.732.732,0,0,0-.225.524.766.766,0,0,0,.765.754h.329a.745.745,0,1,0,0-1.49H15.91Z" transform="translate(0 0)" fill="#aa0100"/>
  </g>
</svg>
