<svg id="Iconly_Light-outline_Wallet" data-name="Iconly/Light-outline/Wallet" xmlns="http://www.w3.org/2000/svg" width="24" height="24" viewBox="0 0 24 24">
  <g id="Wallet" transform="translate(2 2.5)">
    <path id="Wallet-2" data-name="Wallet" d="M5.812,19A5.886,5.886,0,0,1,0,13.056V5.944A5.886,5.886,0,0,1,5.812,0h8.375A5.886,5.886,0,0,1,20,5.944v7.113A5.886,5.886,0,0,1,14.188,19ZM1.454,5.944v7.113a4.414,4.414,0,0,0,4.359,4.457h8.375a4.414,4.414,0,0,0,4.359-4.457V12.78h-3.2a3.413,3.413,0,0,1-.182-6.816l.183-.005h3.2V5.944a4.414,4.414,0,0,0-4.359-4.457H5.812A4.414,4.414,0,0,0,1.454,5.944ZM13.469,9.369A1.908,1.908,0,0,0,15.2,11.288l.147.005h3.2V7.446h-3.2A1.9,1.9,0,0,0,13.469,9.369Zm2.023.683a.745.745,0,0,1-.1-1.481l.1-.006h.3a.744.744,0,0,1,.1,1.48l-.1.007ZM5.122,5.984a.744.744,0,0,1-.1-1.48l.1-.007h5.232a.744.744,0,0,1,.1,1.48l-.1.007Z" fill="#a8a8a8"/>
  </g>
</svg>
